EMG
version=1
nRows=20
nColumns=17
inDegrees=no
endheader
time	_right_gast_med	_right_glut_max	_left_gast_med	_left_glut_max	_right_glut_med	_right_bic_fem	_right_rect_fem	_right_vast_lat	_right_vast_med	_right_tens_fasc_lat	_left_glut_med	_left_bic_fem	_left_rect_fem	_left_vast_lat	_left_vast_med	_left_tens_fasc_lat
      1.43000000	     -0.29191396	     -0.04158253	      0.02707994	      0.07455757	      0.01411583	      0.02839424	      0.01335621	     -0.00335106	     -0.05044677	      0.03731855	      0.02523397	      0.01055296	      0.00691244	      0.00998578	     -0.01371379	     -0.00184554
      1.44000000	     -1.95338762	     -0.08629266	     -0.00033491	      0.01182818	      0.00995015	     -0.00011888	      0.01249658	     -0.00042634	     -0.03676583	      0.03098199	      0.01515041	      0.00731193	      0.01018733	      0.00046779	     -0.01240999	      0.00203974
      1.45000000	     -0.87793535	     -0.10711999	     -0.02057177	      0.00438416	      0.01011016	     -0.00578441	      0.00963536	      0.00311229	     -0.02134094	      0.01679589	      0.00068845	      0.00445679	      0.01415840	     -0.01882778	      0.00000332	      0.00739129
      1.46000000	      0.95655555	     -0.08315010	     -0.00696996	      0.03987385	      0.00952297	     -0.00316444	      0.00540678	      0.00637701	     -0.01505962	      0.00392474	     -0.00971811	      0.00530838	      0.01444979	     -0.03118725	      0.00700375	      0.00941651
      1.47000000	      0.64169174	     -0.06706309	      0.01951998	      0.05382353	      0.01626018	     -0.00240349	      0.00146837	      0.01034854	     -0.00546693	     -0.00696725	     -0.01039455	      0.00711064	      0.01498669	     -0.02618241	     -0.00061130	      0.00519355
      1.48000000	     -0.27072063	     -0.09860252	      0.02731799	      0.04417181	      0.02707315	     -0.00091751	      0.00344917	      0.01227977	      0.02072953	     -0.00913837	     -0.00244535	      0.00302313	      0.01767277	     -0.01292541	     -0.01133655	     -0.00258246
      1.49000000	     -0.49092814	     -0.09087630	      0.01521306	      0.03525208	      0.03026653	      0.00430810	      0.00766007	      0.01531556	      0.04601951	     -0.00310942	      0.01249651	      0.00527705	      0.01613427	     -0.00090939	     -0.01532216	     -0.00754464
      1.50000000	     -0.39993569	      0.01400692	     -0.00131863	      0.02580296	      0.02389043	      0.01262120	      0.00715723	      0.01872645	      0.04192049	      0.00328545	      0.02161856	      0.02280586	      0.01519111	      0.00895216	     -0.01163850	     -0.00278128
      1.51000000	     -0.40508282	      0.14435963	     -0.01103677	      0.02304633	      0.00792025	      0.01727533	      0.00391485	      0.02249252	      0.01042657	      0.00605861	      0.01668904	      0.02063837	      0.01568354	      0.01419842	     -0.00109488	      0.01000802
      1.52000000	     -0.33536476	      0.20531003	     -0.00507602	      0.03080391	     -0.00698896	      0.02056484	      0.00332149	      0.02903534	     -0.02044136	      0.01100585	      0.00882160	     -0.00916524	      0.01074544	      0.00939939	      0.00437476	      0.01758187
      1.53000000	     -0.10343199	      0.16881016	      0.01245508	      0.02277564	     -0.00981845	      0.01969015	      0.00622496	      0.02857407	     -0.03951688	      0.01789619	      0.00332986	     -0.02329797	      0.00582334	     -0.00035105	      0.00363582	      0.01655077
      1.54000000	      0.03361961	      0.09018459	      0.02107115	     -0.00322458	     -0.00960227	      0.01241494	      0.00968996	      0.02698354	     -0.04946840	      0.01946559	      0.00042833	     -0.01773953	      0.00616929	     -0.00688769	      0.00994675	      0.01420770
      1.55000000	      0.00333975	      0.01789111	      0.01449073	     -0.03735134	     -0.00632964	      0.01916916	      0.01139403	      0.03142783	     -0.03782330	      0.01325068	      0.00013274	     -0.01325110	      0.00924725	     -0.01132331	      0.01620565	      0.01166253
      1.56000000	     -0.04815884	     -0.02692005	      0.00548410	     -0.06226947	      0.00794835	      0.02463788	      0.01223170	      0.02240617	     -0.00034345	      0.00630558	      0.00246726	     -0.01714695	      0.00970566	     -0.00069997	      0.02076005	      0.01240518
      1.57000000	     -0.02555257	     -0.03328377	      0.00230064	     -0.05618723	      0.01763463	      0.01648941	      0.00922396	      0.00418194	      0.03828650	      0.00740186	      0.00419180	     -0.01361736	      0.01009511	      0.02097762	      0.01932142	      0.02085418
      1.58000000	      0.06202380	     -0.01079127	      0.00142703	     -0.03177369	      0.00784631	      0.01887010	      0.00427602	     -0.00730243	      0.05975641	      0.00760664	      0.00254363	      0.01598737	      0.01394373	      0.03061670	      0.00922209	      0.02866832
      1.59000000	      0.09336201	      0.01912666	      0.00213909	     -0.01104987	      0.00362685	      0.01482948	      0.00600805	     -0.01472986	      0.06639295	      0.00052317	      0.00015085	      0.04162264	      0.01269316	      0.02569418	      0.00200738	      0.02859918
      1.60000000	     -0.00915909	      0.03938348	      0.00442916	      0.00532799	      0.01288426	      0.00218996	      0.01227916	     -0.01492534	      0.06002930	     -0.00793010	     -0.00205323	      0.03390601	      0.00405671	      0.01866038	     -0.00082934	      0.02729738
      1.61000000	     -0.12909794	      0.04178480	      0.00577180	      0.01822194	      0.00918454	      0.01317203	      0.01470509	     -0.00464255	      0.03813001	     -0.00919569	     -0.00456233	      0.02334182	      0.00044295	      0.02833526	     -0.00869015	      0.03027944
      1.62000000	      0.16717702	      0.03045234	      0.00812592	      0.01724303	     -0.00102324	      0.01390781	      0.01094901	      0.00847858	     -0.00168251	     -0.00420074	     -0.00489199	      0.01180699	      0.01169357	      0.03976972	     -0.04840727	      0.03196323
